<svg width="70" height="90" fill="none" xmlns="http://www.w3.org/2000/svg"><path d="M34.714 90c-.256 0-.507-.076-.72-.219C10.8 74.083 0 55.556 0 31.475V18.617a1.286 1.286 0 011.221-1.285A44.627 44.627 0 0033.698.489 1.363 1.363 0 0134.778 0a1.286 1.286 0 011.029.605c6.171 9.874 19.17 16.598 32.348 16.714a1.286 1.286 0 011.286 1.286v12.857c0 12.857-2.97 23.837-9.09 33.724-5.516 8.923-13.654 16.971-24.904 24.583-.215.15-.47.23-.733.231zM2.571 19.813v11.662c0 23.22 9.926 40.422 32.143 55.684 10.569-7.252 18.232-14.889 23.439-23.323 5.862-9.463 8.704-20.044 8.704-32.361V19.903c-13.114-.501-25.47-6.814-32.246-16.418a47.314 47.314 0 01-32.04 16.328z" fill="#132651"/><path d="M43.599 58.5a1.281 1.281 0 01-.592-.141L34.714 54l-8.293 4.359a1.285 1.285 0 01-1.35-.103 1.286 1.286 0 01-.514-1.286l1.582-9.231-6.699-6.532a1.286 1.286 0 01-.321-1.285 1.285 1.285 0 011.028-.875l9.27-1.285 4.14-8.396a1.286 1.286 0 012.314 0l4.14 8.396 9.27 1.285a1.286 1.286 0 011.029.875 1.286 1.286 0 01-.322 1.285L43.29 47.74l1.581 9.231a1.286 1.286 0 01-.514 1.286c-.22.16-.486.245-.758.244zm-8.885-7.238c.21-.003.418.045.605.141l6.57 3.459-1.286-7.329a1.284 1.284 0 01.373-1.131l5.322-5.143-7.354-1.067a1.286 1.286 0 01-.964-.708l-3.266-6.71-3.291 6.66a1.285 1.285 0 01-.964.706l-7.316 1.067 5.323 5.143a1.287 1.287 0 01.372 1.132l-1.285 7.328 6.557-3.381a1.28 1.28 0 01.604-.167z" fill="#132651"/></svg>