<svg width="97" height="90" fill="none" xmlns="http://www.w3.org/2000/svg"><path d="M48.04 74.794a1.282 1.282 0 100-2.565 1.282 1.282 0 000 2.565zm30.984-7.602a10.787 10.787 0 1110.785-10.787 10.8 10.8 0 01-10.785 10.787zm0-19.008a8.221 8.221 0 00-1.606 16.287 8.223 8.223 0 009.826-8.066 8.23 8.23 0 00-8.22-8.22z" fill="#132651"/><path d="M1.282 90A1.284 1.284 0 010 88.711v-3.795C0 75.98 7.812 68.42 17.058 68.42c4.573 0 9.204 1.88 12.385 5.033l.501.495.427-.561a22.187 22.187 0 0135.34 0l.426.56.501-.494c3.182-3.153 7.81-5.033 12.386-5.033 9.245 0 17.058 7.55 17.058 16.495v3.795a1.285 1.285 0 01-1.283 1.283L1.282 90zm77.732-19.008c-4.25 0-8.538 1.89-11.192 4.934l-.276.317.194.374a22.292 22.292 0 012.474 10.2v.618h23.302v-2.52c0-7.544-6.637-13.923-14.492-13.923h-.01zm-30.973-3.8a19.648 19.648 0 00-19.627 19.625v.618h39.253v-.618a19.648 19.648 0 00-19.626-19.625zm-30.983 3.8c-7.856 0-14.493 6.377-14.493 13.924v2.52H25.85v-.62a22.29 22.29 0 012.475-10.2l.193-.373-.272-.315c-2.651-3.045-6.94-4.936-11.19-4.936z" fill="#132651"/><path d="M17.057 67.192a10.788 10.788 0 1110.788-10.787 10.8 10.8 0 01-10.788 10.787zm0-19.008a8.223 8.223 0 108.223 8.22 8.23 8.23 0 00-8.223-8.22zM48.04 63.39a14.588 14.588 0 1114.588-14.587A14.604 14.604 0 0148.041 63.39zm0-26.61a12.022 12.022 0 1012.023 12.023A12.035 12.035 0 0048.041 36.78zm8.155-8.835c-.208 0-.412-.05-.596-.146L47.97 23.79l-7.629 4.01a1.282 1.282 0 01-1.855-1.35l1.455-8.494-6.167-6.012a1.282 1.282 0 01.71-2.187l8.521-1.238L46.82.721a1.28 1.28 0 012.304 0l3.814 7.797 8.522 1.238a1.282 1.282 0 01.71 2.187l-6.168 6.013 1.458 8.488a1.278 1.278 0 01-1.264 1.499v.002zM45.01 10.252a1.28 1.28 0 01-.967.708l-6.62.96 4.791 4.67a1.279 1.279 0 01.37 1.134l-1.13 6.598 5.92-3.113a1.274 1.274 0 011.193 0l5.924 3.113-1.134-6.598a1.286 1.286 0 01.369-1.134l4.793-4.67-6.622-.96a1.287 1.287 0 01-.971-.708l-2.955-6.051-2.96 6.051zm41.059 27.433c-.208 0-.413-.05-.596-.146l-5.258-2.763-5.258 2.763a1.284 1.284 0 01-1.855-1.353l1.004-5.851-4.251-4.147a1.282 1.282 0 01.709-2.185l5.874-.858 2.629-5.326a1.283 1.283 0 012.299 0l2.627 5.326 5.876.854a1.28 1.28 0 01.713 2.185l-4.253 4.15 1.004 5.852a1.295 1.295 0 01-.51 1.254 1.27 1.27 0 01-.754.245zM78.44 24.89a1.283 1.283 0 01-.965.701l-3.973.576 2.874 2.804a1.28 1.28 0 01.37 1.134l-.68 3.956 3.555-1.868a1.291 1.291 0 011.194 0l3.553 1.868-.679-3.956a1.276 1.276 0 01.37-1.134l2.874-2.804-3.974-.576a1.28 1.28 0 01-.964-.703l-1.78-3.598-1.775 3.6zM21.444 37.685c-.208 0-.412-.05-.596-.146l-5.256-2.763-5.257 2.763a1.283 1.283 0 01-1.856-1.35l1.006-5.854-4.26-4.147a1.283 1.283 0 01.712-2.185l5.876-.858 2.62-5.322a1.282 1.282 0 012.3 0l2.636 5.322 5.877.854a1.283 1.283 0 01.711 2.185l-4.254 4.147 1.005 5.851a1.287 1.287 0 01-.51 1.254 1.27 1.27 0 01-.754.245v.004zm-7.63-12.796a1.282 1.282 0 01-.964.701l-3.983.576 2.886 2.804a1.279 1.279 0 01.37 1.134l-.68 3.956 3.555-1.868a1.291 1.291 0 011.194 0l3.553 1.868-.679-3.956a1.283 1.283 0 01.37-1.134l2.874-2.804-3.973-.576a1.28 1.28 0 01-.965-.703L15.59 21.29l-1.775 3.6zM60.06 82.398a1.286 1.286 0 01-1.156-.732 12.101 12.101 0 00-4.283-4.913 1.283 1.283 0 011.409-2.144 14.638 14.638 0 015.187 5.946 1.284 1.284 0 01-1.156 1.835v.008z" fill="#132651"/></svg>