<svg width="84" height="90" fill="none" xmlns="http://www.w3.org/2000/svg"><path fill-rule="evenodd" clip-rule="evenodd" d="M41.208 10.197c-.876.31-1.708.918-2.134 1.558-.803 1.205-2.075 1.337-3.043.316-.67-.705-.947-.8-1.57-.542-.61.253-.766.67-.982 2.619-.408 3.68.967 7.88 3.413 10.422.294.307.496.557.449.557-.048 0-.448-.158-.89-.351-1.59-.695-2.71-.876-5.585-.904-3.003-.03-3.573-.139-4.715-.902-.995-.666-1.39-.76-1.869-.45-.967.63-.749 1.586.56 2.454 1.54 1.022 2.441 1.22 5.8 1.272 3.223.05 4.094.223 5.655 1.118.668.383.785.511.713.78a2.653 2.653 0 00-.09.496c0 .098-.468.248-1.085.348-2.39.387-5.311 1.635-7.567 3.23-2.005 1.42-2.355 1.901-2.017 2.776.1.26.807.675 1.15.675.115 0 .842-.467 1.613-1.037.772-.57 1.996-1.344 2.721-1.72 1.195-.62 3.203-1.4 3.6-1.4.087 0-.487.65-1.275 1.447-6.765 6.834-9.764 11.946-10.912 18.596-.192 1.112-.27 5.618-.128 7.396l.074.938-.86.506-.858.506v-1.192c0-1.24-.228-1.95-.68-2.123-.133-.05-2.855-.092-6.05-.092H8.84l-.42.358-.42.358v27.073l.42.359.419.358 5.857-.005c4.369-.003 5.918-.05 6.095-.185.452-.345.585-.836.585-2.16 0-1.531-.045-1.484 1.499-1.614 1.287-.109 2.65.24 5.823 1.486 4.152 1.632 7.07 2.273 11.06 2.43 7.796.305 18.745-2.05 31.87-6.856 2.197-.805 3.127-1.495 3.763-2.79 1.083-2.207.707-4.432-1.016-6.01-1.233-1.128-2.122-1.321-4.644-1.006-.981.122-1.81.198-1.84.168-.03-.03.176-.412.458-.85 1.372-2.134 2.766-5.567 3.305-8.145 1.28-6.117.021-12.953-3.417-18.559-1.747-2.848-3.512-4.993-7.688-9.341l-2.484-2.586-.008-.903c-.009-1.004-.282-1.664-1.004-2.42l-.455-.476.982-1.034c1.745-1.837 2.895-3.82 3.547-6.114.65-2.283.527-6.37-.216-7.227-.51-.59-1.118-.519-1.934.229-1.206 1.105-1.85 1.03-3.147-.368-1.061-1.142-1.705-1.504-2.898-1.628-1.514-.157-2.808.438-3.824 1.76-1.072 1.395-1.923 1.335-3.44-.24-.879-.914-1.188-1.134-1.865-1.334-.977-.288-1.83-.296-2.595-.025zm2.958 3.257c.493.531 1.173 1.1 1.51 1.263 1.824.886 3.941.348 5.17-1.312.51-.69 1.104-1.049 1.72-1.041.61.008 1.04.296 1.665 1.116.996 1.31 2.738 1.901 4.47 1.518l.485-.108-.001.998c-.002 1.919-.735 4.107-2.026 6.047-.584.879-2.354 2.646-3.484 3.479-1.53 1.128-4.112 1.73-6.88 1.603-2.992-.136-4.807-.86-6.886-2.745-2.5-2.268-3.866-4.967-4.127-8.16l-.104-1.276.358.102c.926.26 1.761.268 2.613.022.76-.22 1.028-.405 1.93-1.334.576-.594 1.148-1.12 1.27-1.17.124-.048.494-.062.822-.028.51.052.728.202 1.495 1.026zM41.57 28.3c3.104 1.36 7.835 1.493 10.99.308 1.712-.643 1.947-.704 2.348-.604.519.13.888.84.696 1.34-.387 1.014-4.955 2.32-8.075 2.31a19.706 19.706 0 01-4.32-.53c-1.296-.317-3.477-1.201-3.713-1.506-.274-.355-.228-.835.123-1.279.391-.494.89-.504 1.95-.039zm.075 4.828c2.274.691 3.208.82 5.884.815 1.958-.003 2.78-.071 3.995-.33 1.633-.347 3.277-.887 4.38-1.439l.678-.339 2.56 2.696c4.29 4.52 5.884 6.52 7.556 9.484 4.53 8.027 3.953 17.82-1.464 24.878-.818 1.065-.754 1.035-2.685 1.276l-.748.093v-1.225c0-1.064-.053-1.314-.405-1.91-.223-.376-.636-.886-.918-1.132-.985-.859-1.333-.916-7.81-1.274l-5.992-.33-1.464-1.233c-6.23-5.244-12.13-6.732-18.6-4.692-.612.194-1.15.316-1.195.271-.045-.044-.078-1.461-.075-3.149.005-2.606.056-3.298.34-4.593.506-2.313 1.012-3.79 1.97-5.75 1.612-3.3 3.543-5.838 7.977-10.492l2.782-2.92.88.423c.483.233 1.542.625 2.354.872zm5.436 5.836c-.541.199-.738.574-.743 1.419-.004.615-.055.779-.245.779-.463 0-2.029.95-2.554 1.549-.292.332-.707.971-.923 1.42-.334.695-.392 1.017-.392 2.153 0 1.138.059 1.462.399 2.182.837 1.774 2.492 2.886 4.614 3.098 1.355.136 1.89.376 2.514 1.127 1.27 1.531.618 3.879-1.277 4.598-1.632.62-3.635-.542-3.875-2.248-.172-1.214-.58-1.704-1.418-1.704-.517 0-1.032.656-1.032 1.313 0 1.913 1.365 3.917 3.215 4.717l.97.42v.716c0 .858.47 1.445 1.16 1.445.763 0 1.168-.565 1.265-1.762.037-.457.109-.526.831-.792.962-.355 2.221-1.53 2.7-2.518.9-1.864.578-4.26-.793-5.879-.843-.995-2.722-1.818-4.155-1.818-.315 0-.822-.127-1.127-.282-2.009-1.024-2.227-3.558-.428-4.98.52-.412.674-.454 1.655-.454.928 0 1.167.058 1.702.409.715.47 1.15 1.219 1.305 2.25.13.858.498 1.276 1.125 1.276 1.01 0 1.382-.613 1.173-1.928-.28-1.752-1.72-3.565-3.268-4.111l-.722-.255-.066-.785c-.096-1.15-.725-1.68-1.61-1.355zM18.984 71.747v11.877h-8.668V59.87h8.668v11.878zM35.47 60.378c3.136.79 5.165 2.024 9.727 5.916l.483.412 6.286.353c3.538.198 6.42.424 6.592.515 1.21.643 1.235 2.292.045 2.903-.252.13-3.596.593-8.546 1.185-4.473.534-8.355 1.01-8.626 1.056-.682.117-1.075.55-1.075 1.182 0 .718.429 1.113 1.208 1.113.337 0 7.265-.804 15.398-1.787 14.328-1.731 14.802-1.779 15.309-1.54 1.94.915 1.757 3.761-.306 4.73-1.318.62-10.804 3.713-13.9 4.532-7.39 1.956-13.329 2.819-18.083 2.626-3.937-.159-6.287-.675-10.509-2.31-3.69-1.43-4.238-1.564-6.341-1.564h-1.756V63.723l.934-.603c2.33-1.506 5.561-2.776 7.876-3.097 1.46-.203 3.656-.055 5.284.355z" fill="#132651"/></svg>