<svg width="191" height="110" fill="none" xmlns="http://www.w3.org/2000/svg"><path d="M28.063.204C12.583.204 0 12.784 0 28.258a1.528 1.528 0 003.053 0c0-13.791 11.225-25.001 25.01-25.001 13.784 0 25.009 11.221 25.009 25.001 0 13.78-11.214 25.002-25.01 25.002-8.16 0-15.703-3.928-20.407-10.549l11.26-14.79 3.277 3.558a1.522 1.522 0 002.2.045l3.311-3.31 3.346 3.343c.303.303.684.45 1.077.45.393 0 .786-.147 1.078-.45l3.85-3.849 5.556 7.294a1.522 1.522 0 002.425-1.84l-15.76-20.704a1.531 1.531 0 00-1.212-.606c-.472 0-.92.225-1.213.606L4.57 41.746c0 .012-.012.012-.012.023a.702.702 0 01-.067.09c-.011.01-.011.022-.022.033-.023.034-.034.068-.057.09-.01.011-.01.034-.022.045-.011.033-.022.056-.034.09-.01.01-.01.033-.022.044-.011.034-.023.057-.023.09 0 .012-.01.034-.01.056-.012.034-.012.068-.023.101 0 .012 0 .034-.011.045 0 .034-.012.068-.012.112v.18c0 .045.012.09.012.135v.01c.01.046.01.09.022.136v.01c.011.046.022.09.034.124v.012c.01.033.033.078.045.112 0 .01.01.022.01.033a.454.454 0 00.057.101c.011.012.011.023.022.034.012.022.023.034.034.056 5.208 8.012 14.02 12.804 23.573 12.804 15.479 0 28.062-12.58 28.062-28.054C56.125 12.784 43.542.204 28.063.204zm0 15.7l7.128 9.358-3.065 3.063-3.345-3.344a1.525 1.525 0 00-2.155 0l-3.267 3.266-2.57-2.783 7.274-9.56zm81.5 21.291v2.834H98.958v-2.834l2.501-.9-.8-2.434h-7.404l-.833 2.4 2.6.934v2.834h-10.07v-2.834l2.434-.933 7.337-19.637 5.336-.1 7.17 19.737 2.334.933zm-10.005-6.9l-2.5-7.902-2.635 7.901h5.135zm18.594-3.669h3.268c2.446 0 4.414.533 5.903 1.6 1.512 1.067 2.268 2.645 2.268 4.734 0 2.334-.767 4.101-2.301 5.301-1.534 1.178-3.68 1.767-6.437 1.767h-10.605v-2.834l2.735-1v-15.67l-2.502-1v-2.833l7.671-.167h10.105v6.868h-3.102l-.833-2.867h-6.17v6.1zm0 9.402h2.535c1.111 0 1.978-.29 2.601-.867.645-.6.967-1.334.967-2.2 0-1.89-1.356-2.835-4.069-2.835h-2.034v5.902zm36.07-19.504v3l-2.668 1-5.169 12.17c-2.202 5.156-4.858 7.734-7.971 7.734a11.53 11.53 0 01-4.702-1l.9-3.734c1.356.378 2.512.567 3.468.567 1.223 0 2.268-.556 3.135-1.667l-7.804-14.07-2.501-1v-2.833l10.305-.167v3l-2.668 1 4.969 9.369 3.936-9.368-2.835-1V16.69l9.605-.167zM91.483 79.65l-.65-2.136H87.56l-.65 2.135h-2.05l3.167-9.008h2.326l3.18 9.008h-2.05zm-1.105-3.732a1821.8 1821.8 0 01-1.019-3.283 10.432 10.432 0 01-.16-.601c-.135.523-.521 1.818-1.16 3.884h2.34zm11.357-5.24l-2.775 6.345c-.348.798-.675 1.37-.982 1.719a2.86 2.86 0 01-1.08.779c-.418.168-.925.251-1.523.251-.511 0-.988-.06-1.43-.184v-1.632c.36.147.808.22 1.344.22.34 0 .614-.077.823-.232.209-.16.382-.434.522-.823l-3.107-6.443h2.014l2.21 5.001h.061l.11-.307 1.855-4.694h1.958zm4.586 8.972h-1.903v-7.39h-2.438v-1.583h6.778v1.583h-2.437v7.389zm7.642-7.517c-.716 0-1.271.27-1.663.81-.393.536-.59 1.284-.59 2.246 0 2 .751 3 2.253 3 .63 0 1.394-.157 2.29-.472v1.596c-.737.306-1.559.46-2.468.46-1.305 0-2.304-.395-2.996-1.184-.691-.794-1.037-1.932-1.037-3.413 0-.932.17-1.749.509-2.448.34-.704.827-1.242 1.461-1.614.639-.377 1.386-.565 2.241-.565.872 0 1.748.211 2.627.632l-.613 1.547c-.336-.16-.674-.299-1.013-.417a3.022 3.022 0 00-1.001-.178zm12.338 3.018c0 1.486-.368 2.627-1.105 3.425s-1.793 1.196-3.168 1.196c-1.375 0-2.431-.398-3.167-1.196-.737-.798-1.105-1.944-1.105-3.437 0-1.493.368-2.632 1.105-3.418.741-.79 1.8-1.184 3.18-1.184 1.379 0 2.433.396 3.161 1.19.733.794 1.099 1.935 1.099 3.424zm-6.55 0c0 1.003.19 1.758.571 2.265.38.507.949.76 1.706.76 1.519 0 2.278-1.008 2.278-3.025 0-2.02-.755-3.031-2.265-3.031-.757 0-1.328.256-1.713.767-.385.507-.577 1.262-.577 2.264zm10.326-.251h.626c.585 0 1.023-.115 1.314-.344.29-.233.435-.57.435-1.012 0-.446-.122-.776-.368-.988-.241-.213-.622-.32-1.142-.32h-.865V74.9zm4.297-1.424c0 .966-.303 1.704-.909 2.216-.601.51-1.459.767-2.572.767h-.816v3.19h-1.903v-8.971h2.867c1.088 0 1.915.235 2.48.706.568.466.853 1.163.853 2.092zm5.519-1.343c-.716 0-1.271.27-1.664.81-.393.536-.589 1.284-.589 2.246 0 2 .751 3 2.253 3 .63 0 1.393-.157 2.29-.472v1.596c-.737.306-1.56.46-2.468.46-1.306 0-2.304-.395-2.996-1.184-.692-.794-1.037-1.932-1.037-3.413 0-.932.169-1.749.509-2.448.34-.704.827-1.242 1.461-1.614.639-.377 1.385-.565 2.241-.565.871 0 1.747.211 2.627.632l-.614 1.547a9.826 9.826 0 00-1.013-.417 3.016 3.016 0 00-1-.178zm4.193-1.455h1.713v4.332l-.025 1.16-.061 1.32h.037l4.143-6.812h2.278v8.972h-1.695v-4.308c0-.577.037-1.432.111-2.566h-.049l-4.162 6.874h-2.29v-8.972zm17.715 8.972h-1.896v-3.873h-3.555v3.873h-1.903v-8.972h1.903v3.516h3.555v-3.516h1.896v8.972zm7.943-8.972v1.57h-3.769v7.402h-1.903v-8.972h5.672zM86.766 89.235h.75c1.17 0 2.074.237 2.712.712.639.475.958 1.146.958 2.013 0 1.87-1.236 2.804-3.708 2.804h-2.615v-8.971h5.672v1.57h-3.769v1.872zm0 3.97h.639c.642 0 1.113-.102 1.412-.306.298-.209.448-.522.448-.94 0-.412-.152-.709-.454-.889-.303-.184-.823-.276-1.56-.276h-.485v2.412zm13.205-7.412l-2.775 6.345c-.347.798-.675 1.37-.982 1.718a2.86 2.86 0 01-1.08.78c-.418.167-.925.251-1.523.251a5.33 5.33 0 01-1.43-.184v-1.632c.36.147.808.22 1.344.22.34 0 .614-.077.823-.233.209-.16.383-.433.522-.822l-3.106-6.444h2.013l2.21 5.002h.062l.11-.307 1.854-4.694h1.958zm8.379 8.971h-2.173l-2.087-3.393-2.087 3.393h-2.038l2.977-4.627-2.787-4.344h2.1l1.933 3.227 1.897-3.227h2.05l-2.817 4.449 3.032 4.522zm6.814-8.971v1.57h-3.769v7.401h-1.903v-8.971h5.672zm6.87 8.971l-.651-2.135h-3.272l-.651 2.135h-2.05l3.168-9.009h2.326l3.18 9.01h-2.05zm-1.105-3.731a1821.8 1821.8 0 01-1.019-3.283 10.31 10.31 0 01-.16-.602c-.135.524-.522 1.819-1.16 3.885h2.339zm11.381 3.731h-1.897v-7.388h-2.198l-.098.822c-.254 2.09-.479 3.56-.675 4.406-.193.843-.475 1.436-.848 1.78-.372.344-.875.511-1.51.503a2.79 2.79 0 01-.908-.135v-1.559c.237.082.46.123.669.123a.587.587 0 00.516-.294c.126-.2.245-.57.356-1.105.114-.54.264-1.422.448-2.645a107.6 107.6 0 00.479-3.48h5.666v8.972zm5.739 0h-1.903v-7.388h-2.437v-1.584h6.777v1.584h-2.437v7.388zm8.999 0h-5.169v-8.971h5.169v1.558h-3.266v1.97h3.039v1.559h-3.039v2.313h3.266v1.571zm3.781-4.749h.626c.585 0 1.023-.115 1.314-.344.29-.233.435-.57.435-1.013 0-.446-.122-.775-.368-.988-.241-.212-.622-.319-1.142-.319h-.865v2.664zm4.297-1.424c0 .965-.303 1.704-.909 2.215-.601.512-1.459.767-2.572.767h-.816v3.191h-1.903v-8.971h2.867c1.088 0 1.915.235 2.48.705.568.467.853 1.164.853 2.093zm5.519-1.344c-.716 0-1.271.27-1.664.81-.393.536-.589 1.285-.589 2.246 0 2 .751 3 2.253 3 .63 0 1.393-.157 2.289-.472v1.596c-.736.307-1.559.46-2.467.46-1.306 0-2.304-.395-2.996-1.184-.692-.794-1.037-1.931-1.037-3.412 0-.933.169-1.75.509-2.449.34-.704.827-1.242 1.461-1.614.639-.376 1.385-.564 2.241-.564.871 0 1.747.21 2.627.632l-.614 1.546a9.826 9.826 0 00-1.013-.417 3.019 3.019 0 00-1-.178zm11.51 7.517h-2.161l-3.253-4.547v4.547h-1.903v-8.971h1.903v4.344l3.217-4.344h2.025l-3.272 4.307 3.444 4.664zm1.13-8.971h1.713v4.332l-.025 1.16-.061 1.32h.037l4.143-6.813h2.278v8.972h-1.694v-4.308c0-.576.036-1.431.11-2.565h-.049l-4.162 6.873h-2.29v-8.971zm17.618 8.971h-2.173l-2.087-3.393-2.087 3.393h-2.038l2.977-4.627-2.787-4.344h2.099l1.934 3.227 1.897-3.227h2.05l-2.817 4.449 3.032 4.522zm-97.836 6.141l-2.775 6.346c-.348.797-.675 1.37-.982 1.718a2.847 2.847 0 01-1.08.779c-.418.168-.925.252-1.523.252-.511 0-.988-.061-1.43-.184v-1.633c.36.148.808.221 1.344.221.34 0 .614-.077.823-.233.209-.159.382-.433.522-.822l-3.107-6.444h2.014l2.21 5.002h.061l.11-.307 1.855-4.695h1.958zm4.935 1.455c-.716 0-1.27.27-1.663.81-.393.536-.59 1.284-.59 2.246 0 2 .751 3.001 2.253 3.001.63 0 1.394-.158 2.29-.473v1.596c-.737.307-1.56.46-2.468.46-1.305 0-2.304-.395-2.995-1.184-.692-.794-1.038-1.932-1.038-3.413 0-.932.17-1.748.51-2.448.34-.704.826-1.242 1.46-1.614.639-.376 1.386-.565 2.241-.565.872 0 1.748.211 2.628.632l-.614 1.547a9.95 9.95 0 00-1.013-.417 3.014 3.014 0 00-1-.178zm11.296 7.517h-1.897v-7.388h-2.198l-.098.822c-.254 2.09-.479 3.559-.675 4.406-.193.843-.475 1.436-.847 1.78-.373.343-.876.511-1.51.503-.344 0-.647-.045-.909-.135v-1.559c.237.082.46.123.669.123a.586.586 0 00.516-.295c.127-.2.245-.568.356-1.104.114-.54.264-1.422.448-2.645.188-1.228.348-2.387.479-3.48h5.666v8.972zm9.355-8.972l-2.775 6.346c-.348.797-.675 1.37-.982 1.718a2.846 2.846 0 01-1.081.779c-.417.168-.924.252-1.522.252-.512 0-.988-.061-1.43-.184v-1.633c.36.148.808.221 1.344.221.34 0 .614-.077.823-.233.208-.159.382-.433.521-.822l-3.106-6.444h2.014l2.21 5.002h.061l.111-.307 1.853-4.695h1.959zm6.797 0v1.571h-3.77v7.401h-1.903v-8.972h5.673zm-40.848-46.9h84.804v2.445H84.602v-2.445zm0-54.005h84.804v2.446H84.602V0z" fill="#fff"/></svg>