<svg width="121" height="40" fill="none" xmlns="http://www.w3.org/2000/svg"><path d="M19.885.144C8.916.144 0 9.058 0 20.023a1.083 1.083 0 002.163 0c0-9.772 7.954-17.716 17.722-17.716 9.767 0 17.721 7.951 17.721 17.716 0 9.764-7.946 17.715-17.721 17.715a17.68 17.68 0 01-14.46-7.474l7.977-10.48 2.323 2.52a1.075 1.075 0 001.559.033l2.346-2.346L22 22.36c.215.214.486.317.764.317s.557-.103.764-.318l2.728-2.727 3.937 5.169a1.079 1.079 0 001.718-1.305L20.744 8.827a1.085 1.085 0 00-.86-.43c-.333 0-.651.16-.858.43L3.237 29.58c0 .008-.008.008-.008.016a.439.439 0 01-.047.064c-.008.008-.008.016-.016.024-.016.023-.024.047-.04.063-.008.008-.008.024-.016.032l-.024.064c-.008.008-.008.024-.016.032-.008.023-.016.04-.016.063 0 .008-.008.024-.008.04-.008.024-.008.048-.016.071 0 .008 0 .024-.008.032 0 .024-.007.048-.007.08v.127c0 .032.007.064.007.095v.008c.008.032.008.064.016.096v.008c.008.031.016.063.024.087v.008c.008.024.024.056.032.08 0 .008.008.015.008.023a.324.324 0 00.04.072c.008.008.008.016.016.024.008.016.016.024.024.04A19.86 19.86 0 0019.885 39.9c10.968 0 19.884-8.913 19.884-19.878S30.853.144 19.885.144zm0 11.124l5.05 6.632-2.171 2.17-2.37-2.37a1.08 1.08 0 00-1.527 0l-2.315 2.315-1.821-1.972 5.154-6.775zm57.75 15.087v2.008H70.12v-2.008l1.773-.637-.567-1.725H66.08l-.591 1.701 1.843.662v2.007h-7.137v-2.008l1.725-.661 5.2-13.914 3.78-.071 5.081 13.985 1.654.662zm-7.09-4.89l-1.772-5.598-1.866 5.598h3.639zm13.177-2.598h2.316c1.733 0 3.127.378 4.182 1.134 1.072.756 1.607 1.874 1.607 3.354 0 1.654-.543 2.906-1.63 3.756-1.087.835-2.608 1.252-4.561 1.252H78.12v-2.008l1.938-.708V14.544l-1.772-.71v-2.007l5.435-.118h7.16v4.866h-2.198l-.59-2.031h-4.372v4.323zm0 6.662h1.796c.787 0 1.402-.205 1.843-.614a2.05 2.05 0 00.685-1.56c0-1.338-.96-2.008-2.883-2.008h-1.441v4.182zm25.556-13.82v2.126l-1.89.709-3.663 8.622c-1.56 3.654-3.443 5.481-5.648 5.481-1.15 0-2.26-.236-3.332-.709l.638-2.646c.96.268 1.78.402 2.458.402.866 0 1.606-.394 2.221-1.181l-5.53-9.97-1.772-.708v-2.008l7.302-.118v2.126l-1.89.709 3.52 6.638 2.789-6.638-2.009-.71v-2.007l6.806-.118zM59.947 38.267h60.091V40h-60.09v-1.733zm0-38.267h60.091v1.733h-60.09V0z" fill="#fff"/></svg>