<svg width="379" height="379" fill="none" xmlns="http://www.w3.org/2000/svg"><path d="M189.5 0C84.972 0 0 84.972 0 189.5c0 5.685 4.624 10.309 10.309 10.309s10.309-4.624 10.309-10.309c0-93.158 75.8-168.882 168.882-168.882 93.082 0 168.882 75.8 168.882 168.882 0 93.082-75.724 168.882-168.882 168.882-55.107 0-106.044-26.53-137.804-71.252l76.027-99.904 22.134 24.029a10.42 10.42 0 007.352 3.335c2.805.076 5.534-1.061 7.504-3.032l22.361-22.361 22.589 22.588c2.046 2.047 4.624 3.032 7.277 3.032 2.653 0 5.306-.985 7.276-3.032l26-25.999 37.521 49.27c3.411 4.548 9.93 5.382 14.402 1.971 4.548-3.411 5.382-9.93 1.971-14.402L197.686 82.774c-1.97-2.578-5.002-4.094-8.186-4.094s-6.216 1.516-8.186 4.094L30.851 280.612c0 .075-.076.075-.076.151-.152.228-.303.455-.455.607-.076.075-.076.151-.152.227-.151.227-.227.455-.379.606-.075.076-.075.228-.151.304-.076.227-.152.379-.228.606-.075.076-.075.227-.151.303-.076.228-.152.379-.152.607 0 .075-.076.227-.076.379-.075.227-.075.454-.151.682 0 .076 0 .227-.076.303 0 .227-.076.455-.076.758v1.213c0 .303.076.606.076.909v.076c.076.303.076.607.152.91v.076c.075.303.151.606.227.833v.076c.076.228.227.531.303.758 0 .076.076.152.076.228.076.227.227.454.379.682.076.076.076.151.152.227.075.152.151.228.227.379C65.491 346.633 124.994 379 189.5 379 294.028 379 379 294.028 379 189.5S294.028 0 189.5 0zm0 106.044l48.133 63.217-20.693 20.694-22.589-22.589c-4.017-4.017-10.536-4.017-14.553 0l-22.058 22.058-17.358-18.798 49.118-64.582z" fill="#F2F6F8"/></svg>