<svg width="537" height="537" fill="none" xmlns="http://www.w3.org/2000/svg"><path d="M268.5 0C120.395 0 0 120.395 0 268.5c0 8.055 6.551 14.606 14.606 14.606s14.607-6.551 14.607-14.606c0-131.995 107.4-239.287 239.287-239.287s239.287 107.4 239.287 239.287S400.495 507.787 268.5 507.787c-78.08 0-150.253-37.59-195.253-100.956l107.722-141.553 31.361 34.046a14.757 14.757 0 0010.418 4.725c3.973.108 7.84-1.503 10.632-4.296l31.683-31.683 32.005 32.006c2.9 2.899 6.552 4.296 10.311 4.296 3.759 0 7.518-1.397 10.31-4.296l36.838-36.839 53.163 69.81c4.833 6.444 14.07 7.626 20.406 2.793 6.444-4.833 7.626-14.07 2.793-20.406l-150.79-198.153c-2.792-3.652-7.088-5.8-11.599-5.8s-8.807 2.148-11.599 5.8L43.711 397.595c0 .107-.107.107-.107.215-.214.322-.43.644-.644.859-.107.107-.107.215-.215.322-.215.322-.322.644-.537.859-.107.108-.107.322-.215.43-.107.322-.214.537-.322.859-.107.107-.107.322-.215.43-.107.322-.214.537-.214.859 0 .107-.108.322-.108.537-.107.322-.107.644-.215.966 0 .108 0 .323-.107.43 0 .322-.107.644-.107 1.074v1.718c0 .43.107.86.107 1.289v.108c.107.429.107.859.215 1.288v.108c.107.429.215.859.322 1.181v.108c.107.322.322.751.43 1.074 0 .107.107.214.107.322.107.322.322.644.537.966.107.108.107.215.215.323.107.214.215.322.322.537C92.794 491.14 177.103 537 268.5 537 416.605 537 537 416.605 537 268.5 537 120.395 416.605 0 268.5 0zm0 150.253l68.199 89.571-29.32 29.32-32.005-32.005c-5.693-5.692-14.929-5.692-20.621 0l-31.254 31.254-24.594-26.636 69.595-91.504z" fill="#F2F6F8"/></svg>