<svg width="70" height="90" fill="none" xmlns="http://www.w3.org/2000/svg"><path d="M34.714 90c-.256 0-.507-.076-.72-.219C10.8 74.083 0 55.556 0 31.475V18.617a1.286 1.286 0 011.221-1.285A44.627 44.627 0 0033.698.489 1.363 1.363 0 0134.778 0a1.286 1.286 0 011.029.605c6.171 9.874 19.17 16.598 32.348 16.714a1.286 1.286 0 011.286 1.286v12.857c0 12.857-2.97 23.837-9.09 33.724-5.516 8.923-13.654 16.971-24.904 24.583-.215.15-.47.23-.733.231zM2.571 19.813v11.662c0 23.22 9.926 40.422 32.143 55.684 10.569-7.252 18.232-14.889 23.439-23.323 5.862-9.463 8.704-20.044 8.704-32.361V19.903c-13.114-.501-25.47-6.814-32.246-16.418a47.314 47.314 0 01-32.04 16.328z" fill="#132651"/></svg>